<svg width="23" height="22" viewBox="0 0 23 22" fill="none" xmlns="http://www.w3.org/2000/svg">
<path d="M14.6703 11.0018V11.0009C14.6703 10.1526 14.3762 9.33062 13.838 8.6749C13.2999 8.01919 12.551 7.57034 11.719 7.40484C10.8871 7.23935 10.0234 7.36743 9.27532 7.76728C8.5272 8.16713 7.94085 8.814 7.61619 9.59768C7.29152 10.3814 7.24862 11.2534 7.4948 12.0651C7.74097 12.8769 8.26099 13.5782 8.96626 14.0496C9.67152 14.5209 10.5184 14.7331 11.3626 14.6501C12.2068 14.5671 12.9961 14.1939 13.596 13.5942C13.9364 13.2651 14.2069 12.8708 14.3915 12.4349C14.5761 11.9989 14.6709 11.5303 14.6703 11.0568L14.6694 10.9991V11.0018H14.6703ZM16.6503 11.0018C16.6459 12.3021 16.1911 13.5606 15.3633 14.5633C14.5354 15.566 13.3857 16.2508 12.1098 16.5012C10.8339 16.7517 9.5106 16.5523 8.36517 15.9369C7.21973 15.3216 6.32292 14.3283 5.82735 13.1262C5.33177 11.9241 5.26807 10.5874 5.64707 9.34359C6.02607 8.09979 6.82435 7.02575 7.90608 6.30425C8.98779 5.58276 10.2861 5.25839 11.5801 5.38635C12.874 5.51431 14.0836 6.08669 15.0031 7.00608C15.5252 7.51274 15.9402 8.11919 16.2233 8.78939C16.5065 9.45959 16.652 10.1799 16.6512 10.9074L16.6503 11.0073V11.0027V11.0018ZM18.1967 5.12967V5.1315C18.1968 5.43689 18.0911 5.73287 17.8974 5.96901C17.7037 6.20514 17.4342 6.36682 17.1347 6.42649C16.8351 6.48616 16.5242 6.44013 16.2548 6.29624C15.9855 6.15236 15.7743 5.91952 15.6574 5.63741C15.5404 5.35529 15.5249 5.04135 15.6135 4.74909C15.7021 4.45682 15.8892 4.20431 16.1431 4.03457C16.397 3.86484 16.7019 3.78839 17.0058 3.81825C17.3097 3.84811 17.5939 3.98244 17.8099 4.19833C18.0446 4.42842 18.1903 4.74925 18.1903 5.104V5.13058V5.12967H18.1967ZM11.0101 1.97633L9.91467 1.969C9.251 1.96411 8.74714 1.96411 8.40308 1.969C8.05903 1.97389 7.59825 1.98825 7.02075 2.01208C6.4845 2.03042 5.97575 2.08358 5.478 2.16792L5.54492 2.15875C5.15533 2.22292 4.80975 2.31458 4.47883 2.4365L4.51825 2.42367C4.05076 2.6116 3.62562 2.89124 3.26793 3.2461C2.91024 3.60095 2.62723 4.02385 2.43558 4.48983L2.42642 4.51458C2.30876 4.83662 2.2216 5.169 2.16608 5.50733L2.1615 5.54125C2.07997 6.02291 2.03127 6.50956 2.01575 6.99783L2.01483 7.01708C1.991 7.59519 1.97664 8.05597 1.97175 8.39942C1.96686 8.74286 1.96686 9.24672 1.97175 9.911C1.97664 10.5753 1.97908 10.9404 1.97908 11.0064C1.97908 11.0724 1.97664 11.4376 1.97175 12.1018C1.96686 12.7661 1.96686 13.27 1.97175 13.6134C1.97664 13.9569 1.991 14.4176 2.01483 14.9957C2.03317 15.532 2.08633 16.0408 2.17067 16.5385L2.1615 16.4716C2.22567 16.8612 2.31733 17.2067 2.43925 17.5377L2.42642 17.4982C2.61435 17.9657 2.89399 18.3909 3.24885 18.7486C3.6037 19.1063 4.0266 19.3893 4.49258 19.5809L4.51733 19.5901C4.80883 19.6992 5.15442 19.7908 5.51008 19.8504L5.544 19.855C5.97392 19.9302 6.48267 19.9833 6.99967 20.0007L7.01892 20.0017C7.59703 20.0255 8.05781 20.0399 8.40125 20.0447C8.74469 20.0496 9.24856 20.0496 9.91283 20.0447L11.0018 20.0227L12.0972 20.0301C12.7609 20.035 13.2648 20.035 13.6088 20.0301C13.9529 20.0252 14.4137 20.0108 14.9912 19.987C15.5274 19.9687 16.0362 19.9155 16.5339 19.8312L16.467 19.8403C16.8566 19.7762 17.2022 19.6845 17.5331 19.5626L17.4937 19.5754C17.9612 19.3875 18.3863 19.1078 18.744 18.753C19.1017 18.3981 19.3847 17.9752 19.5763 17.5093L19.5855 17.4845C19.6946 17.193 19.7862 16.8474 19.8458 16.4917L19.8504 16.4578C19.9256 16.0279 19.9787 15.5192 19.9962 15.0022L19.9971 14.9829C20.0209 14.4048 20.0353 13.944 20.0402 13.6006C20.0451 13.2571 20.0451 12.7533 20.0402 12.089C20.0353 11.4247 20.0328 11.0596 20.0328 10.9936C20.0328 10.9276 20.0353 10.5624 20.0402 9.89816C20.0451 9.23389 20.0451 8.73003 20.0402 8.38658C20.0353 8.04314 20.0209 7.58236 19.9971 7.00425C19.9788 6.468 19.9256 5.95925 19.8412 5.4615L19.8504 5.52842C19.7923 5.16496 19.6993 4.80795 19.5727 4.46233L19.5855 4.50175C19.3976 4.03425 19.1179 3.60912 18.7631 3.25143C18.4082 2.89374 17.9853 2.61073 17.5193 2.41908L17.4946 2.40992C17.1725 2.29226 16.8402 2.2051 16.5018 2.14958L16.4679 2.145C15.9866 2.06351 15.5002 2.01481 15.0122 1.99925L14.993 1.99833C14.4149 1.9745 13.9541 1.96014 13.6107 1.95525C13.2672 1.95036 12.7634 1.95036 12.0991 1.95525L11.0101 1.97633ZM22.0037 11.0018C22.0037 13.1884 21.9792 14.7018 21.9303 15.5421C21.9737 16.3936 21.8376 17.2448 21.5309 18.0404C21.2243 18.836 20.7539 19.5584 20.1502 20.1605C19.5465 20.7627 18.8231 21.2314 18.0267 21.5361C17.2304 21.8408 16.3789 21.9748 15.5274 21.9294L15.5421 21.9303C14.7018 21.9792 13.1884 22.0037 11.0018 22.0037C8.81528 22.0037 7.30186 21.9792 6.46158 21.9303C5.61002 21.9737 4.75885 21.8376 3.96323 21.5309C3.16762 21.2243 2.44531 20.7539 1.84312 20.1502C1.24092 19.5465 0.772284 18.8231 0.467564 18.0267C0.162845 17.2304 0.0288456 16.3789 0.07425 15.5274L0.0733333 15.5421C0.0244444 14.7018 0 13.1884 0 11.0018C0 8.81528 0.0244444 7.30186 0.0733333 6.46158C0.0300038 5.61002 0.166078 4.75885 0.472737 3.96323C0.779396 3.16762 1.2498 2.44531 1.85346 1.84312C2.45712 1.24092 3.18057 0.772284 3.97693 0.467564C4.77329 0.162845 5.62479 0.0288456 6.47625 0.07425L6.46158 0.0733333C7.30186 0.0244444 8.81528 0 11.0018 0C13.1884 0 14.7018 0.0244444 15.5421 0.0733333C16.3937 0.0300038 17.2448 0.166078 18.0404 0.472737C18.836 0.779396 19.5584 1.2498 20.1605 1.85346C20.7627 2.45712 21.2314 3.18057 21.5361 3.97693C21.8408 4.77329 21.9748 5.62479 21.9294 6.47625L21.9303 6.46158C21.9792 7.30125 22.0037 8.81467 22.0037 11.0018Z" fill="white"/>
</svg>
